<?xml version="1.0" encoding="UTF-8" standalone="no"?><!DOCTYPE svg PUBLIC "-//W3C//DTD SVG 1.1//EN" "http://www.w3.org/Graphics/SVG/1.1/DTD/svg11.dtd"><svg width="100%" height="100%" viewBox="0 0 1837 357" version="1.1" xmlns="http://www.w3.org/2000/svg" xmlns:xlink="http://www.w3.org/1999/xlink" xml:space="preserve" xmlns:serif="http://www.serif.com/" style="fill-rule:evenodd;clip-rule:evenodd;stroke-miterlimit:10;"><g id="Ebene-1" serif:id="Ebene 1"><path d="M715.896,156.413l-13.834,44.387c-0.071,0.221 -0.162,0.43 -0.287,0.617l-2.417,3.754l2.15,19.392c0.146,1.308 -0.75,2.508 -2.05,2.737l-17.292,3.088l-9.429,8.583l1.746,12.213c0.196,1.325 -0.708,2.579 -2.033,2.816l-55.854,10.213l-19.246,11.358c-0.392,0.229 -0.829,0.342 -1.275,0.342l-16.079,-0c-0.805,-0 -1.559,-0.383 -2.03,-1.042l-9.829,-13.579l-17.516,6.425c-1.18,0.438 -2.513,-0.083 -3.092,-1.212l-23.488,-45.667c-0.079,-0.158 -0.141,-0.325 -0.183,-0.479l-7.717,-27.992c-0.041,-0.158 -0.075,-0.304 -0.083,-0.458l-2.571,-30.238c-0.083,-0.958 0.392,-1.875 1.221,-2.366l15.008,-8.888l7.084,-18.483c0.2,-0.513 0.554,-0.95 1.025,-1.234l21.616,-13.35l30.021,-30.662c0.188,-0.2 0.417,-0.367 0.663,-0.483l30.554,-15.45c1.229,-0.613 2.717,-0.134 3.35,1.075l16.45,31.379l6.762,-1.754c0.296,-0.075 0.605,-0.105 0.913,-0.067l39.242,4.508c0.995,0.113 1.825,0.809 2.112,1.767c0.296,0.958 -0.017,1.992 -0.783,2.637l-9.629,8.109l14.529,9.412c0.212,0.146 0.404,0.313 0.571,0.513l21.241,25.741c0.538,0.646 0.709,1.534 0.459,2.338Z" style="fill:#fff;fill-rule:nonzero;stroke:#010303;stroke-width:3.53px;"/><path d="M562.334,121.45c0.171,-0.104 0.333,-0.229 0.471,-0.375l29.941,-30.588l27.996,-14.141l16.221,30.95c0.542,1.033 1.721,1.566 2.85,1.262l1,-0.258l31.767,11.154c0.183,0.525 0.475,1.017 0.95,1.317l17.046,11.05l20.129,24.404l-13.329,42.771l-2.055,3.183l-15.654,-7.683l-2.379,-7.438c-0.167,-0.521 -0.608,-0.908 -1.15,-1.012l-17.508,-3.325l-1.829,-28.334l5.775,-10.95l18.112,-15.25l-1.933,-2.3l-16.917,14.246l-12.317,-23.137c-0.183,-0.338 -0.483,-0.596 -0.85,-0.721l-29.625,-9.875l4.246,-21.538l-2.954,-0.579l-4.5,22.838c-0.146,0.737 0.283,1.479 1,1.721l30.308,10.104l12.538,23.533l-5.738,10.879c-0.129,0.25 -0.187,0.521 -0.17,0.792l1.929,29.925c0.041,0.687 0.55,1.25 1.216,1.375l17.78,3.379l2.308,7.188c0.125,0.383 0.396,0.708 0.767,0.883l16.525,8.125l1.816,16.367c-11.308,-2.4 -22.908,-5.059 -25.187,-5.959c-0.692,-1.375 -2.85,-4.746 -9.617,-14.004c-0.117,-0.158 -0.25,-0.283 -0.408,-0.387l-61.954,-39.6l-11.096,-34.863l-2.863,0.917l9.842,30.9l-7.525,-5.634l-24.625,-20.316c-0.621,-0.513 -1.538,-0.446 -2.079,0.154l-11.263,12.621l-4.716,-0.063c-0.655,-0.008 -1.325,0.471 -1.488,1.171l-5.142,22.517l2.925,0.671l4.871,-21.334l21.629,0.304l0.05,-3.004l-14.15,-0.2l8.563,-9.604l23.567,19.442l11.333,8.5l0.008,-0.009c0.034,0.021 0.054,0.05 0.084,0.071l62.175,39.746c4.116,5.654 8.545,11.975 9.187,13.3c0.092,1.229 1.517,2.138 23.613,6.842l-11.28,2.008c-0.47,0.083 -0.904,0.292 -1.254,0.617l-33.3,-6.35l-74.621,-20.817l-26.75,-23.892c-0.083,-0.083 -0.183,-0.145 -0.287,-0.208l-24.279,-12.975l12.937,-7.671c0.479,-0.291 0.859,-0.729 1.063,-1.25l7.096,-18.512l21.158,-13.071Zm85.712,-15.029l33.009,3.787l-7.571,6.375l-27.458,-9.641l2.02,-0.521Zm20.334,129.733c-0.617,0.567 -0.913,1.388 -0.796,2.213l1.596,11.137l-53.925,9.858c-0.292,0.05 -0.575,0.155 -0.825,0.3l-19.038,11.246l-14.116,0l-9.071,-12.546l32.6,-16.616l29.587,5.787c0.096,0.021 0.192,0.034 0.292,0.034c0.167,-0 0.333,-0.034 0.496,-0.084l31.841,-11.275l-1,-2.837l-31.458,11.137l-25.417,-4.975l10.459,-5.329c0.471,-0.237 0.779,-0.708 0.812,-1.242c0.038,-0.529 -0.221,-1.041 -0.658,-1.341l-40.588,-27.304l66.163,18.45l31.204,5.962l-8.158,7.425Zm-117.404,26.096l-22.363,-43.479l-7.587,-27.521l-2.263,-26.596l24.017,12.842l27.041,24.141l46.142,31.055l-45.837,23.362c-0.596,-0.292 -1.284,-0.362 -1.934,-0.125l-17.216,6.321Zm-14.175,-130.317l-7.088,18.484l-15.008,8.887c-0.829,0.492 -1.3,1.408 -1.217,2.367l2.571,30.237c0.008,0.154 0.042,0.3 0.083,0.459l7.717,27.991c0.042,0.154 0.104,0.321 0.183,0.479l23.488,45.667c0.579,1.129 1.912,1.65 3.091,1.213l17.517,-6.425l9.829,13.579c0.471,0.658 1.225,1.041 2.029,1.041l16.08,0c0.445,0 0.883,-0.112 1.275,-0.341l19.245,-11.359l55.855,-10.212c1.325,-0.238 2.229,-1.492 2.033,-2.817l-1.746,-12.212l9.429,-8.584l17.292,-3.087c1.296,-0.229 2.196,-1.429 2.05,-2.738l-2.15,-19.391l2.417,-3.754c0.125,-0.188 0.216,-0.396 0.283,-0.617l13.837,-44.388c0.25,-0.804 0.08,-1.687 -0.458,-2.337l-21.242,-25.742c-0.166,-0.2 -0.358,-0.366 -0.575,-0.512l-14.525,-9.413l9.63,-8.108c0.766,-0.646 1.079,-1.679 0.783,-2.638c-0.288,-0.958 -1.117,-1.654 -2.113,-1.766l-39.241,-4.509c-0.309,-0.037 -0.617,-0.008 -0.913,0.067l-6.762,1.754l-16.45,-31.379c-0.638,-1.208 -2.121,-1.687 -3.35,-1.075l-30.554,15.45c-0.246,0.117 -0.475,0.283 -0.663,0.483l-30.025,30.663l-21.612,13.35c-0.471,0.283 -0.825,0.721 -1.025,1.233" style="fill:#010303;fill-rule:nonzero;"/><path d="M609.784,144.909l2.833,-1l-7.267,-20.529l2.504,-13.434l-2.962,-0.554l-2.567,13.829c-0.05,0.263 -0.029,0.525 0.059,0.779l7.4,20.909Z" style="fill:#010303;fill-rule:nonzero;"/><text x="18.886px" y="349.21px" style="font-family:'ArialMT', 'Arial', sans-serif;font-size:59.809px;fill:#bfbdbd;">T<tspan x="56.888px 101.548px 142.909px 163.18px 204.541px 245.901px 293.891px 310.154px 351.515px 369.6px 420.89px 465.55px 500.281px 537.203px 575.205px 593.29px 641.28px 685.94px 713.604px 750.526px 798.516px 846.505px 881.236px 922.597px 970.587px " y="349.21px 349.21px 349.21px 349.21px 349.21px 349.21px 349.21px 349.21px 349.21px 349.21px 349.21px 349.21px 349.21px 349.21px 349.21px 349.21px 349.21px 349.21px 349.21px 349.21px 349.21px 349.21px 349.21px 349.21px 349.21px ">HE EEG SIMULATION TOOLBOX</tspan></text><g transform="matrix(4.16667,0,0,4.16667,-19.7661,-22.4213)"><clipPath id="_clip1"><path d="M1.874,0l0,71.609l185.02,0l145.777,0.716l-3.267,19.544l198.852,0l2.702,-91.869l-529.084,0Z" clip-rule="nonzero"/></clipPath><g clip-path="url(#_clip1)"><text x="-1.351px" y="69.504px" style="font-family:'Corbel-Italic', 'Corbel', sans-serif;font-style:italic;font-size:89.153px;fill:#1e1e1c;">Unf <tspan x="174.862px " y="69.504px ">l</tspan>d</text><text x="241.94px" y="69.504px" style="font-family:'Corbel-Italic', 'Corbel', sans-serif;font-style:italic;font-size:89.153px;fill:#e6007e;">Sim</text><text x="379.451px" y="69.504px" style="font-family:'Corbel', sans-serif;font-size:89.153px;fill:#bfbdbd;">.</text><text x="402.999px" y="69.504px" style="font-family:'Corbel-Italic', 'Corbel', sans-serif;font-style:italic;font-size:89.153px;fill:#bfbdbd;">jl</text></g></g></g></svg>