<?xml version="1.0" encoding="UTF-8" standalone="no"?>
<!DOCTYPE svg PUBLIC "-//W3C//DTD SVG 1.1//EN" "http://www.w3.org/Graphics/SVG/1.1/DTD/svg11.dtd">
<svg width="100%" height="100%" viewBox="0 0 2035 395" version="1.1" xmlns="http://www.w3.org/2000/svg" xmlns:xlink="http://www.w3.org/1999/xlink" xml:space="preserve" xmlns:serif="http://www.serif.com/" style="fill-rule:evenodd;clip-rule:evenodd;stroke-miterlimit:10;">
    <g transform="matrix(1,0,0,1,-131.353,-142.905)">
        <g id="UnfoldSim-Logo" serif:id="UnfoldSim Logo" transform="matrix(1.10749,0,0,1.10749,109.463,118.074)">
            <g transform="matrix(4.16667,0,0,4.16667,735.662,212.063)">
                <path d="M0,-7.975L-3.32,2.678C-3.337,2.731 -3.359,2.781 -3.389,2.826L-3.969,3.727L-3.453,8.381C-3.418,8.695 -3.633,8.983 -3.945,9.038L-8.095,9.779L-10.358,11.839L-9.939,14.77C-9.892,15.088 -10.109,15.389 -10.427,15.446L-23.832,17.897L-28.451,20.623C-28.545,20.678 -28.65,20.705 -28.757,20.705L-32.616,20.705C-32.809,20.705 -32.99,20.613 -33.103,20.455L-35.462,17.196L-39.666,18.738C-39.949,18.843 -40.269,18.718 -40.408,18.447L-46.045,7.487C-46.064,7.449 -46.079,7.409 -46.089,7.372L-47.941,0.654C-47.951,0.616 -47.959,0.581 -47.961,0.544L-48.578,-6.713C-48.598,-6.943 -48.484,-7.163 -48.285,-7.281L-44.683,-9.414L-42.983,-13.85C-42.935,-13.973 -42.85,-14.078 -42.737,-14.146L-37.549,-17.35L-30.344,-24.709C-30.299,-24.757 -30.244,-24.797 -30.185,-24.825L-22.852,-28.533C-22.557,-28.68 -22.2,-28.565 -22.048,-28.275L-18.1,-20.744L-16.477,-21.165C-16.406,-21.183 -16.332,-21.19 -16.258,-21.181L-6.84,-20.099C-6.601,-20.072 -6.402,-19.905 -6.333,-19.675C-6.262,-19.445 -6.337,-19.197 -6.521,-19.042L-8.832,-17.096L-5.345,-14.837C-5.294,-14.802 -5.248,-14.762 -5.208,-14.714L-0.11,-8.536C0.019,-8.381 0.06,-8.168 0,-7.975Z" style="fill:white;fill-rule:nonzero;stroke:black;stroke-width:0.76px;"/>
            </g>
            <g transform="matrix(4.16667,0,0,4.16667,582.1,247.025)">
                <path d="M0,-24.757C0.041,-24.782 0.08,-24.812 0.113,-24.847L7.299,-32.188L14.018,-35.582L17.911,-28.154C18.041,-27.906 18.324,-27.778 18.595,-27.851L18.835,-27.913L26.459,-25.236C26.503,-25.11 26.573,-24.992 26.687,-24.92L30.778,-22.268L35.609,-16.411L32.41,-6.146L31.917,-5.382L28.16,-7.226L27.589,-9.011C27.549,-9.136 27.443,-9.229 27.313,-9.254L23.111,-10.052L22.672,-16.852L24.058,-19.48L28.405,-23.14L27.941,-23.692L23.881,-20.273L20.925,-25.826C20.881,-25.907 20.809,-25.969 20.721,-25.999L13.611,-28.369L14.63,-33.538L13.921,-33.677L12.841,-28.196C12.806,-28.019 12.909,-27.841 13.081,-27.783L20.355,-25.358L23.364,-19.71L21.987,-17.099C21.956,-17.039 21.942,-16.974 21.946,-16.909L22.409,-9.727C22.419,-9.562 22.541,-9.427 22.701,-9.397L26.968,-8.586L27.522,-6.861C27.552,-6.769 27.617,-6.691 27.706,-6.649L31.672,-4.699L32.108,-0.771C29.394,-1.347 26.61,-1.985 26.063,-2.201C25.897,-2.531 25.379,-3.34 23.755,-5.562C23.727,-5.6 23.695,-5.63 23.657,-5.655L8.788,-15.159L6.125,-23.526L5.438,-23.306L7.8,-15.89L5.994,-17.242L0.084,-22.118C-0.065,-22.241 -0.285,-22.225 -0.415,-22.081L-3.118,-19.052L-4.25,-19.067C-4.407,-19.069 -4.568,-18.954 -4.607,-18.786L-5.841,-13.382L-5.139,-13.221L-3.97,-18.341L1.221,-18.268L1.233,-18.989L-2.163,-19.037L-0.108,-21.342L5.548,-16.676L8.268,-14.636L8.27,-14.638C8.278,-14.633 8.283,-14.626 8.29,-14.621L23.212,-5.082C24.2,-3.725 25.263,-2.208 25.417,-1.89C25.439,-1.595 25.781,-1.377 31.084,-0.248L28.377,0.234C28.264,0.254 28.16,0.304 28.076,0.382L20.084,-1.142L2.175,-6.138L-4.245,-11.872C-4.265,-11.892 -4.289,-11.907 -4.314,-11.922L-10.141,-15.036L-7.036,-16.877C-6.921,-16.947 -6.83,-17.052 -6.781,-17.177L-5.078,-21.62L0,-24.757ZM20.571,-28.364L28.493,-27.455L26.676,-25.925L20.086,-28.239L20.571,-28.364ZM25.451,2.772C25.303,2.908 25.232,3.105 25.26,3.303L25.643,5.976L12.701,8.342C12.631,8.354 12.563,8.379 12.503,8.414L7.934,11.113L4.546,11.113L2.369,8.102L10.193,4.114L17.294,5.503C17.317,5.508 17.34,5.511 17.364,5.511C17.404,5.511 17.444,5.503 17.483,5.491L25.125,2.785L24.885,2.104L17.335,4.777L11.235,3.583L13.745,2.304C13.858,2.247 13.932,2.134 13.94,2.006C13.949,1.879 13.887,1.756 13.782,1.684L4.041,-4.869L19.92,-0.441L27.409,0.99L25.451,2.772ZM-2.726,9.035L-8.093,-1.4L-9.914,-8.005L-10.457,-14.388L-4.693,-11.306L1.797,-5.512L12.871,1.941L1.87,7.548C1.727,7.478 1.562,7.461 1.406,7.518L-2.726,9.035ZM-6.128,-22.241L-7.829,-17.805L-11.431,-15.672C-11.63,-15.554 -11.743,-15.334 -11.723,-15.104L-11.106,-7.847C-11.104,-7.81 -11.096,-7.775 -11.086,-7.737L-9.234,-1.019C-9.224,-0.982 -9.209,-0.942 -9.19,-0.904L-3.553,10.056C-3.414,10.327 -3.094,10.452 -2.811,10.347L1.393,8.805L3.752,12.064C3.865,12.222 4.046,12.314 4.239,12.314L8.098,12.314C8.205,12.314 8.31,12.287 8.404,12.232L13.023,9.506L26.428,7.055C26.746,6.998 26.963,6.697 26.916,6.379L26.497,3.448L28.76,1.388L32.91,0.647C33.221,0.592 33.437,0.304 33.402,-0.01L32.886,-4.664L33.466,-5.565C33.496,-5.61 33.518,-5.66 33.534,-5.713L36.855,-16.366C36.915,-16.559 36.874,-16.771 36.745,-16.927L31.647,-23.105C31.607,-23.153 31.561,-23.193 31.509,-23.228L28.023,-25.487L30.334,-27.433C30.518,-27.588 30.593,-27.836 30.522,-28.066C30.453,-28.296 30.254,-28.463 30.015,-28.49L20.597,-29.572C20.523,-29.581 20.449,-29.574 20.378,-29.556L18.755,-29.135L14.807,-36.666C14.654,-36.956 14.298,-37.071 14.003,-36.924L6.67,-33.216C6.611,-33.188 6.556,-33.148 6.511,-33.1L-0.695,-25.741L-5.882,-22.537C-5.995,-22.469 -6.08,-22.364 -6.128,-22.241" style="fill-rule:nonzero;"/>
            </g>
            <g transform="matrix(4.16667,0,0,4.16667,629.55,131.813)">
                <path d="M0,8.524L0.68,8.284L-1.064,3.357L-0.463,0.133L-1.174,0L-1.79,3.319C-1.802,3.382 -1.797,3.445 -1.776,3.506L0,8.524Z" style="fill-rule:nonzero;"/>
            </g>
            <g transform="matrix(4.16667,0,0,4.16667,0,0)">
                <clipPath id="_clip1">
                    <path d="M1.874,0L1.874,71.609L186.894,71.609L332.671,72.325L329.404,91.869L528.256,91.869L530.958,0L1.874,0Z" clip-rule="nonzero"/>
                </clipPath>
                <g clip-path="url(#_clip1)">
                    <text x="-1.351px" y="69.504px" style="font-family:'Corbel-Italic', 'Corbel', sans-serif;font-style:italic;font-size:89.153px;fill:rgb(18,22,24);">Unf <tspan x="174.862px " y="69.504px ">l</tspan>d</text>
                    <text x="241.94px" y="69.504px" style="font-family:'Corbel-Italic', 'Corbel', sans-serif;font-style:italic;font-size:89.153px;fill:rgb(229,7,126);">Sim</text>
                    <text x="379.451px" y="69.504px" style="font-family:'Corbel', sans-serif;font-size:89.153px;fill:rgb(180,181,181);">.</text>
                    <text x="402.999px" y="69.504px" style="font-family:'Corbel-Italic', 'Corbel', sans-serif;font-style:italic;font-size:89.153px;fill:rgb(180,181,181);">jl</text>
                </g>
            </g>
        </g>
    </g>
</svg>
