<?xml version="1.0" encoding="UTF-8" standalone="no"?><!DOCTYPE svg PUBLIC "-//W3C//DTD SVG 1.1//EN" "http://www.w3.org/Graphics/SVG/1.1/DTD/svg11.dtd"><svg width="100%" height="100%" viewBox="0 0 5200 2700" version="1.1" xmlns="http://www.w3.org/2000/svg" xmlns:xlink="http://www.w3.org/1999/xlink" xml:space="preserve" xmlns:serif="http://www.serif.com/" style="fill-rule:evenodd;clip-rule:evenodd;stroke-linecap:round;stroke-linejoin:round;stroke-miterlimit:1.5;"><g><rect x="431.969" y="55.61" width="4565.72" height="692.706" style="fill:none;"/><clipPath id="_clip1"><rect x="431.969" y="55.61" width="4565.72" height="692.706"/></clipPath><g clip-path="url(#_clip1)"><g id="Single-subject-icon" serif:id="Single-subject icon"><path d="M838.645,226.049l0,475.116c0,26.023 -21.127,47.151 -47.151,47.151l-312.374,0c-26.024,0 -47.151,-21.128 -47.151,-47.151l-0,-475.116c-0,-26.024 21.127,-47.151 47.151,-47.151l312.374,-0c26.024,-0 47.151,21.127 47.151,47.151Z" style="fill:#fff;stroke:#000;stroke-width:14.69px;"/><path d="M578.159,70.404l-0,93.699c-0,8.166 -6.63,14.795 -14.795,14.795l-97.601,-0c-8.165,-0 -14.794,-6.629 -14.794,-14.795l-0,-93.699c-0,-8.165 6.629,-14.794 14.794,-14.794l97.601,-0c8.165,-0 14.795,6.629 14.795,14.794Z" style="fill:#fff;stroke:#000;stroke-width:14.69px;"/><g><g><circle cx="724.747" cy="671.976" r="54.092" style="fill:#fff;stroke:#000;stroke-width:2.08px;"/><path d="M724.747,617.884l-0,54.092l54.092,-0c-0,-29.874 -24.218,-54.092 -54.092,-54.092Z" style="fill:url(#_Linear2);stroke:#000;stroke-width:2.08px;"/></g><path d="M546.008,199.873l54.233,54.233l-54.233,54.233l-54.233,-54.233l54.233,-54.233Z" style="fill:#7ee408;stroke:#000;stroke-width:2.08px;"/><path d="M546.008,339.54l54.233,54.233l-54.233,54.233l-54.233,-54.233l54.233,-54.233Z" style="fill:#7ee408;stroke:#000;stroke-width:2.08px;"/><path d="M546.008,479.208l54.233,54.232l-54.233,54.233l-54.233,-54.233l54.233,-54.232Z" style="fill:#e5077e;stroke:#000;stroke-width:2.08px;"/><path d="M546.008,618.875l54.233,54.233l-54.233,54.233l-54.233,-54.233l54.233,-54.233Z" style="fill:#e5077e;stroke:#000;stroke-width:2.08px;"/><circle cx="724.747" cy="254.247" r="54.092" style="fill:url(#_Linear3);stroke:#000;stroke-width:2.08px;"/><g><circle cx="724.747" cy="533.299" r="54.092" style="fill:#fff;stroke:#000;stroke-width:2.08px;"/><path d="M724.747,479.208l-0,108.183c29.874,0 54.092,-24.218 54.092,-54.092c-0,-29.874 -24.218,-54.091 -54.092,-54.091Z" style="fill:url(#_Linear4);stroke:#000;stroke-width:2.08px;"/></g><g><circle cx="724.747" cy="393.914" r="54.092" style="fill:#fff;stroke:#000;stroke-width:2.08px;"/><path d="M724.747,339.823l-0,54.091l-54.092,0c0,29.874 24.218,54.092 54.092,54.092c29.854,0 54.092,-24.238 54.092,-54.092c-0,-29.874 -24.218,-54.091 -54.092,-54.091Z" style="fill:url(#_Linear5);stroke:#000;stroke-width:2.08px;"/></g></g><g id="Person"><path d="M527.213,117.235c21.368,5.604 37.152,25.062 37.152,48.178l-99.602,0c-0,-23.116 15.783,-42.574 37.152,-48.178c3.798,1.937 8.097,3.029 12.649,3.029c4.552,-0 8.851,-1.092 12.649,-3.029Z"/><circle cx="514.564" cy="92.353" r="23.259"/></g></g><g><path d="M1671.5,475.246l51.692,-0l8.617,-10.234l8.612,-27.45l8.617,-35.954l8.616,-33.042l8.613,-15.283l8.617,12.471l8.616,38.542l8.613,55.829l8.616,59.541l8.613,48.659l8.617,26.191l8.616,8.559l8.613,-1.038l8.616,-11.629l8.617,-20.975l8.613,-28l8.616,-31.942l8.617,-32.433l8.612,-29.529l8.617,-23.742l8.617,-15.9l8.137,-12.491l9.154,-11.567l8.013,-8.821l9.154,-8.775l8.613,-7.604l8.616,-5.925l8.617,-4.063l8.612,-2.062l8.617,-0l8.617,2.062l8.612,4.063l8.617,5.925l8.617,7.604l8.612,9.038l8.617,10.175l8.616,10.991l8.613,11.45l8.617,11.546l8.616,11.271l8.613,10.625l8.616,9.646l8.617,8.354l8.613,6.792l8.616,5.016l8.617,3.075l24.45,0.613" style="fill:none;fill-rule:nonzero;stroke:#686766;stroke-width:25px;stroke-linecap:butt;stroke-linejoin:miter;"/><path d="M2084.88,692.745l-354.329,-0c-32.617,-0 -59.058,-26.442 -59.058,-59.054l-0,-354.334c-0,-32.612 26.441,-59.054 59.058,-59.054l354.329,0c32.617,0 59.054,26.442 59.054,59.054l0,354.334c0,32.612 -26.437,59.054 -59.054,59.054Z" style="fill:none;fill-rule:nonzero;stroke:#1d1d1b;stroke-width:14.69px;stroke-linecap:butt;stroke-linejoin:miter;stroke-miterlimit:10;"/></g><g><g><rect x="2977.17" y="679.445" width="19.036" height="10.836" style="fill:#686766;fill-opacity:0.8;"/><rect x="2996.21" y="661.268" width="19.036" height="29.012" style="fill:#686766;fill-opacity:0.8;"/><rect x="3015.26" y="634.806" width="19.036" height="55.474" style="fill:#686766;fill-opacity:0.8;"/><rect x="3034.3" y="591.459" width="19.036" height="98.822" style="fill:#686766;fill-opacity:0.8;"/><rect x="3053.34" y="539.188" width="19.036" height="151.093" style="fill:#686766;fill-opacity:0.8;"/><rect x="3072.38" y="476.71" width="19.036" height="213.57" style="fill:#686766;fill-opacity:0.8;"/><rect x="3091.42" y="420.607" width="19.036" height="269.674" style="fill:#686766;fill-opacity:0.8;"/><rect x="3110.46" y="388.41" width="19.036" height="301.87" style="fill:#686766;fill-opacity:0.8;"/><rect x="3129.5" y="336.773" width="19.036" height="353.507" style="fill:#686766;fill-opacity:0.8;"/><rect x="3148.54" y="302.34" width="19.036" height="387.94" style="fill:#686766;fill-opacity:0.8;"/><rect x="3167.59" y="312.547" width="19.036" height="377.734" style="fill:#686766;fill-opacity:0.8;"/><rect x="3186.62" y="323.701" width="19.036" height="366.579" style="fill:#686766;fill-opacity:0.8;"/><rect x="3205.66" y="341.855" width="19.036" height="348.426" style="fill:#686766;fill-opacity:0.8;"/><rect x="3224.71" y="312.547" width="19.036" height="377.734" style="fill:#686766;fill-opacity:0.8;"/><rect x="3243.75" y="346.007" width="19.036" height="344.274" style="fill:#686766;fill-opacity:0.8;"/><rect x="3262.79" y="381.073" width="19.036" height="309.207" style="fill:#686766;fill-opacity:0.8;"/><rect x="3281.83" y="392.857" width="19.036" height="297.423" style="fill:#686766;fill-opacity:0.8;"/><rect x="3300.87" y="422.838" width="19.036" height="267.443" style="fill:#686766;fill-opacity:0.8;"/><rect x="3319.91" y="438.126" width="19.036" height="252.155" style="fill:#686766;fill-opacity:0.8;"/><rect x="3338.96" y="486.264" width="19.036" height="204.017" style="fill:#686766;fill-opacity:0.8;"/><rect x="3357.99" y="509.541" width="19.036" height="180.739" style="fill:#686766;fill-opacity:0.8;"/><rect x="3377.03" y="519.409" width="19.036" height="170.871" style="fill:#686766;fill-opacity:0.8;"/><rect x="3396.08" y="558.308" width="19.036" height="131.972" style="fill:#686766;fill-opacity:0.8;"/><rect x="3415.12" y="560.544" width="19.036" height="129.736" style="fill:#686766;fill-opacity:0.8;"/><rect x="3434.16" y="581.586" width="19.036" height="108.694" style="fill:#686766;fill-opacity:0.8;"/><rect x="3453.2" y="597.193" width="19.036" height="93.087" style="fill:#686766;fill-opacity:0.8;"/><rect x="3472.24" y="606.132" width="19.036" height="84.148" style="fill:#686766;fill-opacity:0.8;"/><rect x="3491.28" y="618.235" width="19.036" height="72.045" style="fill:#686766;fill-opacity:0.8;"/><rect x="3510.32" y="629.39" width="19.036" height="60.89" style="fill:#686766;fill-opacity:0.8;"/><rect x="3529.36" y="642.776" width="19.036" height="47.504" style="fill:#686766;fill-opacity:0.8;"/><rect x="3548.4" y="649.479" width="19.036" height="40.801" style="fill:#686766;fill-opacity:0.8;"/><rect x="3567.45" y="654.584" width="19.036" height="35.696" style="fill:#686766;fill-opacity:0.8;"/><rect x="3586.49" y="662.869" width="19.036" height="27.411" style="fill:#686766;fill-opacity:0.8;"/><rect x="3605.53" y="660.319" width="19.036" height="29.961" style="fill:#686766;fill-opacity:0.8;"/><rect x="3624.57" y="665.105" width="19.036" height="25.175" style="fill:#686766;fill-opacity:0.8;"/><rect x="3643.61" y="670.206" width="19.036" height="20.074" style="fill:#686766;fill-opacity:0.8;"/><rect x="3662.66" y="676.26" width="19.036" height="14.02" style="fill:#686766;fill-opacity:0.8;"/><rect x="3681.69" y="677.209" width="19.036" height="13.071" style="fill:#686766;fill-opacity:0.8;"/><rect x="3700.73" y="678.158" width="19.036" height="12.123" style="fill:#686766;fill-opacity:0.8;"/><rect x="3319.91" y="689.646" width="19.036" height="0.634" style="fill:#686766;fill-opacity:0.8;"/><rect x="3338.96" y="687.41" width="19.036" height="2.87" style="fill:#686766;fill-opacity:0.8;"/><rect x="3681.69" y="688.364" width="19.036" height="1.916" style="fill:#686766;fill-opacity:0.8;"/></g><path d="M2976.78,690.28l774.161,0" style="fill:none;fill-rule:nonzero;stroke:#000;stroke-width:12.5px;stroke-linecap:butt;stroke-linejoin:miter;stroke-miterlimit:2;"/><path d="M2978.15,692.664l-0,-472.28" style="fill:none;fill-rule:nonzero;stroke:#000;stroke-width:12.5px;stroke-linecap:butt;stroke-linejoin:miter;stroke-miterlimit:2;"/></g><g><clipPath id="_clip6"><rect x="4583.8" y="260.332" width="413.892" height="392.385"/></clipPath><g clip-path="url(#_clip6)"><path d="M4583.8,492.805l1.122,-41.263l1.13,-42.788l1.132,104.383l1.122,76.519l1.132,-114.036l1.123,-85.135l1.132,23.32l1.132,38.8l1.122,-10.775l1.132,114.265l1.12,-119.599l1.132,142.662l1.122,-99.124l1.133,-24.385l1.132,-12.848l1.122,-21.198l1.132,103.585l1.122,-146.085l1.132,119.455l1.12,-80.616l1.132,-57.481l1.133,141.71l1.122,4.928l1.132,-81.415l1.122,5.249l1.132,-9.349l1.123,118.657l1.129,-46.912l1.132,12.258l1.123,-68.616l1.132,-23.993l1.122,70.498l1.132,-29.054l1.132,-44.059l1.123,-39.44l1.129,54.454l1.123,88.731l1.132,-120.931l1.122,62.311l1.132,2.586l1.132,55.661l1.123,-99.903l1.132,23.501l1.122,82.508l1.13,-134.101l1.122,185.067l1.132,-285.01l1.132,168.978l1.123,38.544l1.132,-54.274l1.122,9.434l1.132,-29.13l1.122,19.837l1.13,42.14l1.132,0.03l1.123,-32.327l1.132,-59.18l1.122,64.677l1.132,19.553l1.132,-71.402l1.122,-67.655l1.13,173.703l1.122,-60.18l1.133,153.264l1.122,-231.731l1.132,26.693l1.132,22.15l1.122,119.893l1.132,-144.972l1.123,20.543l1.129,-17.726l1.123,25.989l1.132,156.222l1.132,-122.25l1.122,193.092l1.132,-291.96l1.123,47.932l1.132,109.782l1.122,-51.81l1.13,38.211l1.132,-81.853l1.122,75.112l1.132,-61.922l1.123,110.927l1.132,-173.169l1.132,60.655l1.122,63.25l1.13,-169.459l1.122,156.471l1.132,32.818l1.123,-1.56l1.132,-89.812l1.132,116.022l1.122,24.556l1.132,-37.812l1.123,-4.185l1.129,-11.927l1.123,22.559l1.132,-0.95l1.132,-41.855l1.122,-5.619l1.132,81.758l1.122,-119.01l1.133,-1.047l1.122,-9.548l1.13,19.839l1.132,-19.914l1.122,11.364l1.132,67.445l1.122,-254.669l1.132,204.675l1.133,-141.844l1.122,115.13l1.13,5.222l1.122,-36.283l1.132,-11.277l1.122,143.022l1.132,-163.395l1.132,84.451l1.123,-74.997l1.132,58.089l1.122,112.381l1.13,-121.958l1.122,42.035l1.132,-66.99l1.132,26.028l1.123,-38.581l1.132,-64.526l1.122,65.61l1.132,1.616l1.12,20.334l1.132,96.061l1.132,-131.545l1.123,118.25l1.132,-130.898l1.122,59.134l1.132,-52.694l1.123,97.848l1.132,-8.93l1.129,87.426l1.123,12.555l1.132,-29.682l1.122,-49.376l1.132,-28.341l1.132,-52.933l1.123,154.94l1.132,-63.709l1.122,-62.729l1.13,134.063l1.122,-50.165l1.132,-30.917l1.132,12.229l1.122,-29.281l1.133,-2.787l1.122,-34.036l1.132,32.448l1.12,17.347l1.132,-65.069l1.132,-64.079l1.122,81.464l1.132,128.215l1.123,48.142l1.132,-115.748l1.122,31.277l1.13,-92.4l1.132,-4.954l1.122,82.851l1.132,-0.409l1.123,-12.333l1.132,4.793l1.132,-17.604l1.122,-54.598l1.132,24.974l1.12,-38.6l1.132,98.437l1.123,-83.813l1.132,-142.469l1.132,168.405l1.122,76.631l1.132,-136.936l1.123,-59.664l1.132,216.914l1.12,-4.85l1.132,-44.051l1.132,-88.054l1.122,135.253l1.132,-160.417l1.123,89.975l1.132,-17.651l1.122,-14.568l1.13,-65.279l1.132,57.196l1.122,-32.013l1.132,105.05l1.122,-90.508l1.133,112.21l1.132,-81.588l1.122,149.394l1.13,-95.777l1.122,-135.85l1.132,72.78l1.122,-39.913l1.132,135.005l1.133,-81.539l1.122,-120.446l1.132,5.916l1.122,76.87l1.13,75.099l1.122,15.504l1.132,-98.087l1.132,4.411l1.123,87.037l1.132,70.822l1.122,-51.764l1.132,-96.985l1.123,111.052l1.129,-64.441l1.132,-103.091l1.123,70.452l1.132,129.803l1.122,-154.017l1.132,-48.234l1.132,79.465l1.123,-55.063l1.129,111.117l1.123,-3.197l1.132,-18.744l1.122,-19.182l1.132,-112.4l1.132,118.601l1.123,-178.275l1.132,121.233l1.122,29.806l1.13,-30.576l1.122,5.792l1.132,230.896l1.132,-257.296l1.123,-6.411l1.132,87.56l1.122,-0.874l1.132,53.437l1.122,-50.717l1.13,15.14l1.132,92.98l1.122,-54.959l1.133,38.26l1.122,49.232l1.132,-322.135l1.132,248.776l1.122,-109.814l1.13,1.779l1.122,51.487l1.132,-40.115l1.123,205.428l1.132,-229.192l1.132,41.948l1.122,76.765l1.132,-66.018l1.123,-25.135l1.129,30.318l1.123,-36.775l1.132,-88.302l1.132,32.526l1.122,39.847l1.132,84.821l1.123,-8.39l1.132,-0.151l1.122,-94.264l1.13,76.443l1.132,-130.489l1.122,99.665l1.132,78.61l1.123,-80.322l1.132,-9.967l1.132,115.426l1.122,-89.863l1.13,-57.412l1.122,93.381l1.132,-99.029l1.123,89.271l1.132,-1.217l1.132,-28.806l1.122,-67.816l1.132,111.887l1.122,-10.462l1.13,-114.226l1.122,121.635l1.133,-91.935l1.132,94.72l1.122,-15.331l1.132,13.782l1.122,-182.387l1.132,62.026l1.12,-20.818l1.132,129.233l1.133,-4.336l1.122,-30.384l1.132,-42.863l1.122,89.804l1.132,-138.829l1.132,178.228l1.123,-82.242l1.129,-38.783l1.123,35.464l1.132,-22.12l1.122,59.248l1.132,-76.624l1.132,11.869l1.123,-12.363l1.132,36.319l1.122,-54.226l1.13,62.871l1.122,-115.538l1.132,140.967l1.132,32.811l1.123,20.095l1.132,-21.361l1.122,-67.016l1.132,38.524l1.12,55.273l1.132,-26.496l1.132,-123.925l1.123,16.348l1.132,122.937l1.122,-155.375l1.132,69.85l1.132,-68.338l1.12,27.408l1.132,-16.862l1.123,113.883l1.132,-88.32l1.122,-4.44l1.132,0.73l1.132,21.276l1.122,26.761l1.133,-10.651l1.119,-5.164l1.133,8.786l1.122,-72.2l1.132,-57.147l1.132,75.017l1.122,30.393l1.132,-72.684l1.123,155.65l1.132,-139.037l1.12,160.539l1.132,-117.809l1.132,-60.59l1.122,93.169l1.132,95.911l1.123,-164.22l1.132,67.187l1.122,93.695l1.13,-134.102l1.132,34.226l1.122,30.471l1.132,-93.152l1.123,115.816l1.132,54.7l1.132,-12.589l1.122,-120.352l1.13,-61.339l1.122,237.657l1.132,-71.545l1.123,-99.57l1.132,-67.988l1.132,141.975l1.122,19.525l1.132,8.378l1.123,-80.303l1.129,10.384l1.123,-31.506l1.132,40.115l1.132,-56.025l1.122,-39.087l1.132,-53.456l1.122,28.082l1.133,160.836l1.122,-156.088l1.13,269.372l1.132,-137.792l1.122,-103.042l1.132,148.444l1.122,-153.199l1.132,29.206l1.133,-22.71l1.122,12.333l1.13,59.981l1.122,3.112l1.132,32.124l1.122,-72.923l1.132,85.23l1.132,22.88l1.123,7.151l1.132,-193.112l1.122,121.445l1.13,-155.909l1.122,78.791l1.132,27.808l1.132,125.914l1.123,-122.014l1.132,-59.058l1.122,145.79l1.132,-36.872l1.123,-58.286l1.129,17.163l1.132,-50.383l1.123,-48.358l1.132,125.191l1.122,41.368l1.132,-36.518l1.132,129.461l1.123,34.016l1.129,-224.152l1.123,79.857l1.132,83.878l1.122,-88.263l1.132,-9.595l1.132,-6.924l1.123,-122.082l1.132,246.475l1.122,-2.225l1.13,-147.999l1.122,20.183l1.132,-10.834l1.132,-10.364l1.122,-2.028l1.133,70.128l1.122,-116.497l1.132,134.511l1.122,-71.679l1.13,-81.035l1.132,160.427l1.122,-101.245l1.132,62.223l1.123,-27.513l1.132,69.149l1.132,-97.098l1.122,55.435l1.13,24.517l1.122,-35.351l1.132,63.29l1.123,-159.675l1.132,33.03l1.132,94.72l1.122,50.593l1.132,-146.425l1.123,32.913l1.129,-41.768l1.123,20.684l1.132,-44.202l1.132,121.795l1.122,-107.731l1.132,99.704l1.123,99.791l1.132,-39.915l1.12,-3.338l1.132,-152.122l1.132,109.812l1.122,67.54l1.132,-72.181l1.123,-29.738l1.132,41.541l1.132,-157.573l1.122,59.808l1.13,54.732l1.122,27.997l1.132,-50.308l1.122,-34.513l1.133,-36.243l1.132,53.819l1.122,-33.086l1.132,23.223l1.122,66.647l1.13,-122.082l1.122,219.855l1.132,-160.12l1.133,21.529l1.122,-94.492l1.132,99.239l1.122,19.618l1.132,-17.003l1.12,-19.925l1.132,92.325l1.132,-88.938l1.123,44.231l1.132,-111.762l1.122,173.501l1.132,-47.151l1.132,-129.87l1.12,59.277l1.132,184.61l1.123,-173.713l1.132,84.271l1.122,-146.304l1.132,100.083l1.132,-95.881l1.123,108.748l1.132,-2.481l1.12,-19.362l1.132,-94.484l1.122,124.033l1.132,-21.495l1.132,-29.775l1.123,-95.492l1.132,251.753l1.122,32.589l1.132,-127.102l1.12,-47.311l1.132,124.115l1.132,-23.642l1.123,-93.428l1.132,5.174l1.122,6.276l1.132,11.146l1.132,6.201l1.12,36.613l1.132,7.781l1.122,-82.7l1.133,63.842l1.122,-75.121l1.132,-88.32l1.132,189.613l1.122,-22.863l1.13,-143.916l1.122,32.714l1.132,19.771l1.123,32.801l1.132,-51.935l1.132,166.711l1.122,-121.624l1.132,42.997l1.123,-68.266l1.129,41.76l1.123,25.174l1.132,-40.818l1.132,-20.465l1.122,-41.512l1.132,-15.217l1.123,107.073l1.132,-8.9l1.132,-144.354l1.12,36.377l1.132,53.352l1.122,100.293l1.132,-26.352l1.123,-55.007l1.132,8.321l1.132,50.527l1.122,24.879l1.13,33.522l1.122,-157.639l1.132,54.817l1.123,-35.786l1.132,-23.596l1.132,60.923l1.122,31.44l1.132,-0.886l1.122,-16.745l1.13,-89.9l1.122,-26.58l1.133,162.737l1.132,-113.018l1.122,132.799l1.132,-146.143l1.122,106.437l1.132,3.682l1.123,-12.212l1.129,-85.449l1.133,14.902l1.122,12.896l1.132,-5.079l1.122,46.43l1.132,-30.337l1.132,32.105l1.123,30.994l1.129,-72.553l1.123,15.121l1.132,-65.972l1.122,183.356l1.132,-134.72l1.132,19.523l1.123,-85.8l1.132,23.786l1.122,-60.646l1.13,111.573l1.122,-26.002l1.132,-113.997l1.132,61.615l1.123,188.605l1.132,6.106l1.122,-137.24l1.132,4.411l1.123,-112.845l1.129,112.132l1.132,-54.825l1.123,131.543l1.132,21.656l1.122,-118.021l1.132,59.009l1.132,3.331l1.123,11.885l1.129,31.024l1.123,9.794l1.132,-105.848l1.122,132.144l1.132,-132.913l1.132,-0.848l1.122,84.975l1.133,-99.173l1.122,-6.038l1.13,93.978l1.122,65.933l1.132,-102.718l1.132,46.762l1.122,-59.163l1.132,27.961l1.123,-108.682l1.132,54.663l1.12,62.861l1.132,-0.416l1.132,-17.928l1.122,-99.037l1.132,146.341l1.123,-37.632l1.132,-25.134l1.132,31.934l1.122,20.838l1.13,43.584l1.122,-204.506l1.132,215.099l1.123,-115.539l1.132,24.31l1.132,58.106l1.122,-10.072l1.132,12.032l1.123,-60.57l1.129,40.599l1.123,47.017l1.132,-124.079l1.132,52.324l1.122,10.929l1.132,-41.597l1.123,52.562l1.132,82.357l1.12,-127.311l1.132,52.399l1.132,-4.365l1.122,-73.561l1.132,20.808l1.122,-44.582l1.133,136.773l1.132,-78.343l1.12,-0.068l1.132,60.001l1.122,-71.879l1.132,92.916l1.122,-43.577l1.132,-66.398l1.133,-38.508l1.122,195.918l1.132,-82.89l1.12,-12.677l1.132,-62.016l1.122,47.874l1.132,1.636l1.132,36.499l1.123,-135.755l1.132,141.71l1.122,-47.828l1.132,113.494l1.12,-176.43l1.132,100.731l1.132,-118.277l1.123,77.23l1.132,47.18l1.122,-49.337l1.132,-36.378l1.132,71.687l1.12,-154.891l1.132,60.942l1.123,-57.061l1.132,197.591l1.122,-68.424l1.132,43.213l1.132,-30.062l1.123,-95.652l1.129,16.014l1.123,-4.611l1.132,80.522l1.122,19.496l1.132,-54.245l1.132,-1.724l1.123,7.229l1.132,-54.206l1.122,38.047l1.13,-32.419l1.122,122.901l1.132,-97.079l1.132,91.886l1.122,70.982l1.133,-289.915l1.122,241.518l1.132,-53.789l1.132,82.975l1.12,-65.334l1.132,-69.318l1.122,112.181l1.132,-222.726l1.123,122.355l1.132,-52.514l1.132,-1.787l1.122,61.995l1.13,-83.67l1.122,109.471l1.132,45.43l1.123,-137.126l1.132,77.756l1.132,-116.071l1.122,37.964l1.132,17.861l1.123,68.689l1.129,1.875l1.123,-93.067l1.132,109.946l1.132,-54.569l1.122,-0.046l1.132,-99.972l1.123,95.662l1.132,30.082l1.129,-77.566l1.123,118.581l1.132,25.488l1.122,-20.2l1.132,-15.652l1.123,-63.338l1.132,89.766l1.132,-144.744l1.122,108.074l1.13,-25.906l1.122,6.838l1.132,76.641l1.122,-100.473l1.133,27.017l1.132,-6.237l1.122,37.144l1.132,-4.526l1.122,-34.398l1.13,-0.923l1.122,-43.231l1.132,-28.903l1.133,25.337l1.122,72.134l1.132,-46.963l1.122,105.41l1.132,-144.057l1.13,-76.509l1.122,210.019l1.132,-3.756l1.123,-62.299l1.132,29.281l1.122,-153.693l1.132,74.559l1.132,2.264l1.123,37.354l1.129,-52.779l1.123,-4.879l1.132,-17.405l1.122,21.826l1.132,61.568l1.132,21.532l1.123,62.72l1.132,-133.542l1.122,-21.028l1.13,75.74l1.122,-98.659l1.132,36.633l1.132,-22.271l1.123,118.505l1.132,-60.105l1.122,33.42l1.132,27.121l1.12,38.394l1.132,-49.435l1.132,73.418l1.123,-101.157l1.132,-48.78l1.122,84.575l1.132,-69.879l1.132,-48.037l1.122,77.174l1.13,-22.396l1.122,-52.913l1.133,71.107l1.122,-55.463l1.132,20.521l1.132,9.929l1.122,68.416l1.132,-1.882l1.123,-118.953l1.129,48.986l1.123,21.931l1.132,0.657l1.132,121.301l1.122,-135.31l1.132,93.389l1.123,-78.781l1.132,116.251l1.129,-114.245l1.123,98.248l1.132,-52.58l1.122,45.724l1.132,-42.415l1.123,-101.968l1.132,108.882l1.132,-55.168l1.12,-19.866l1.132,-92.772l1.122,50.478l1.132,132.705l1.123,-62.917l1.132,18.675l1.132,13.269l1.122,14.598l1.132,16.299l1.12,-121.968l1.132,15.978l1.123,1.683l1.132,127.292l1.132,-50.05l1.122,-72.858l1.132,-11.403l1.122,174.959l1.133,-239.227l1.119,-21.198l1.133,122.937l1.132,39.657l1.122,27.883l1.132,-141.861l1.122,35.073l1.132,98.335l1.133,39.552l1.119,-175.044l1.133,92.229l1.122,4.918l1.132,50.944l1.122,-46.238l1.132,-122.574l1.132,29.32l1.123,56.395l1.129,-79.952l1.123,72.743l1.132,-32.981l1.122,144.609l1.132,-50.079l1.132,-97.583l1.123,49.176l1.132,41.522l1.122,-4.346l1.13,-72.412l1.122,150.146l1.132,-93.958l1.132,22.87l1.123,-29.634l1.132,-111.486l1.122,148.395l1.132,-25.838l1.132,23.557l1.12,-123.879l1.132,43.308l1.123,81.245l1.132,-4.82l1.122,-114.295l1.132,97.148l1.132,-171.105l1.123,119.92l1.129,-14.349l1.123,-7.484l1.132,60.073l1.122,-15.567l1.132,-41.149l1.132,43.214l1.122,27.615l1.133,-25.2l1.122,31.781l1.13,117.242l1.122,-249.839l1.132,165.009l1.132,31.106l1.122,-150.021l1.132,-11.241l1.123,237.716l1.132,-53.162l1.13,-8.894l1.122,-49.823l1.132,-65.457l1.122,28.322l1.132,-3.472l1.123,65.914l1.132,-109.157l1.132,171.078l1.122,-196.755l1.13,-14.637l1.122,197.698l1.132,-50.527l1.123,-110.234l1.132,-11.895l1.132,37.992l1.122,81.225l1.132,-146.596l1.123,-16.702l1.129,-44.336l1.123,199.047l1.132,-109.805l1.132,-79.494l1.122,146.949l1.132,-193.69l1.123,219.017l1.132,-49.281l1.129,-27.398l1.123,3.004l1.132,-43.633l1.122,81.218l1.132,-26.839l1.122,-100.512l1.133,-14.055l1.132,196.773l1.122,-185.018l1.13,44.935l1.122,-29.378l1.132,142.832l1.122,-72.884l1.132,-117.773l1.133,112.037l1.122,43.662l1.132,32.886l1.122,36.529l1.13,-110.109l1.122,-85.25l1.132,127.38l1.132,12.648l1.123,-87.482l1.132,71.323l1.122,18.403l1.132,-33.456l1.13,-131.621l1.122,117.299l1.132,-51.411l1.123,56.613l1.132,73.065l1.122,3.766l1.132,-81.578l1.132,41.171l1.123,-175.604l1.129,114.311l1.123,-9.083l1.132,36.606l1.122,81.69l1.132,-72.409l1.132,30.288l1.123,-199.976l1.132,178.798l1.122,-122.878l1.13,198.664l1.122,-75.986l1.132,-36.414l1.132,163.631l1.123,-92.77l1.132,-28.635l1.122,-77.023l1.132,-24.546l1.13,81.425l1.122,16.711l1.132,-79.523l1.122,19.941l1.133,-44.012l1.122,-17.926l1.132,238.675l1.132,-126.733l1.12,-6.142l1.132,-27.009l1.122,-68.807l1.132,186.19l1.123,-7.209l1.132,-112.266l1.132,89.622l1.122,-97.877l1.132,-59.628l1.12,37.972l1.132,63.567l1.123,55.348l1.132,-37.955l1.132,-128.87l1.122,102.452l1.132,59.847l1.123,-120.597l1.132,40.75l1.129,75.577l1.123,45.999" style="fill:none;fill-rule:nonzero;stroke:#686766;stroke-width:6.25px;stroke-linecap:butt;stroke-linejoin:miter;stroke-miterlimit:2;"/></g></g><g><rect x="1194.82" y="443.614" width="120.49" height="25.819" style="fill:#080605;stroke:#080605;stroke-width:8.33px;"/><path d="M1242.16,396.279l25.819,-0l0,120.49l-25.819,0l-0,-120.49Z" style="fill:#080605;stroke:#080605;stroke-width:8.33px;"/></g><g><rect x="2500.12" y="443.614" width="120.49" height="25.819" style="fill:#080605;stroke:#080605;stroke-width:8.33px;"/><path d="M2547.45,396.279l25.82,-0l-0,120.49l-25.82,0l0,-120.49Z" style="fill:#080605;stroke:#080605;stroke-width:8.33px;"/></g><g><rect x="4107.12" y="443.614" width="120.49" height="25.819" style="fill:#080605;stroke:#080605;stroke-width:8.33px;"/><path d="M4154.46,396.279l25.819,-0l0,120.49l-25.819,0l-0,-120.49Z" style="fill:#080605;stroke:#080605;stroke-width:8.33px;"/></g></g><g transform="matrix(1,0,0,1,-2158.95,-4580.69)"><text x="2380.87px" y="5519.2px" style="font-family:'Verdana', sans-serif;font-size:125px;fill:#231f20;">Experimental</text><g transform="matrix(125,0,0,125,2998.64,5644.2)"></g><text x="2589.88px" y="5644.2px" style="font-family:'Verdana', sans-serif;font-size:125px;fill:#231f20;">design</text></g><g transform="matrix(1,0,0,1,-894.794,-4580.69)"><text x="2444.42px" y="5519.2px" style="font-family:'Verdana', sans-serif;font-size:125px;fill:#231f20;">Ev<tspan x="2596.33px 2670.8px " y="5519.2px 5519.2px ">en</tspan>t basis</text><text x="2549.61px" y="5644.2px" style="font-family:'Verdana', sans-serif;font-size:125px;fill:#231f20;">function</text><g transform="matrix(125,0,0,125,3240.96,5769.2)"></g><text x="2364.06px" y="5769.2px" style="font-family:'Verdana', sans-serif;font-size:125px;fill:#231f20;">(components)</text></g><g transform="matrix(1,0,0,1,531.555,-4580.69)"><text x="2478.25px" y="5519.2px" style="font-family:'Verdana', sans-serif;font-size:125px;fill:#231f20;">Inter<tspan x="2785.8px 2842.57px " y="5519.2px 5519.2px ">-o</tspan>nset</text><text x="2572.15px" y="5644.2px" style="font-family:'Verdana', sans-serif;font-size:125px;fill:#231f20;">distance</text><g transform="matrix(125,0,0,125,3187.17,5769.2)"></g><text x="2477.45px" y="5769.2px" style="font-family:'Verdana', sans-serif;font-size:125px;fill:#231f20;">distribution</text></g><g transform="matrix(125,0,0,125,4962.37,1021.82)"></g><text x="4619.11px" y="1021.82px" style="font-family:'Verdana', sans-serif;font-size:125px;fill:#231f20;">Noise</text><g transform="matrix(125,0,0,125,3076.32,2518.96)"></g><text x="2123.68px" y="2518.96px" style="font-family:'Verdana', sans-serif;font-size:125px;fill:#231f20;">Simulated data</text></g><g><path d="M2600,1535.04c0,18.541 -23.142,-10.309 -24.192,-11.346c-11.001,-10.861 -20.779,-22.169 -32.263,-32.849c-41.657,-38.739 -88.113,-75.67 -150.297,-103.427c-28.245,-12.607 -58.578,-23.31 -91.514,-30.924c-106.686,-24.661 -211.573,-9.251 -322.519,-3.48c-52.686,2.74 -105.449,4.987 -158.249,6.766c-261.168,8.798 -524.613,6.507 -785.751,7.72c-119.544,0.556 -239.084,1.611 -358.632,1.656c-81.374,0.031 -196.501,-1.56 -279.145,-5.594c-37.257,-1.819 -74.373,-4.634 -111.414,-7.652c-16.443,-1.34 -32.731,-3.327 -48.956,-5.413c-16.578,-2.132 -47.31,-5.327 -64.252,-12.165c-27.791,-11.217 -40.131,-32.608 -47.493,-51.156c-15.687,-39.52 -13.544,-81.749 -8.519,-121.96c1.326,-10.612 5.09,-21.136 5.09,-31.778" style="fill:none;stroke:#231f20;stroke-width:21.38px;"/><path d="M2600,1535.04c0,18.541 23.142,-10.309 24.192,-11.346c11.001,-10.861 20.779,-22.169 32.263,-32.849c41.657,-38.739 88.113,-75.67 150.297,-103.427c28.245,-12.607 58.578,-23.31 91.514,-30.924c106.686,-24.661 211.573,-9.251 322.519,-3.48c52.686,2.74 105.449,4.987 158.249,6.766c261.168,8.798 524.613,6.507 785.751,7.72c119.544,0.556 239.084,1.611 358.632,1.656c81.374,0.031 196.501,-1.56 279.145,-5.594c37.257,-1.819 74.373,-4.634 111.414,-7.652c16.443,-1.34 32.731,-3.327 48.956,-5.413c16.578,-2.132 47.31,-5.327 64.252,-12.165c27.791,-11.217 40.131,-32.608 47.493,-51.156c15.687,-39.52 13.544,-81.749 8.519,-121.96c-1.326,-10.612 -5.09,-21.136 -5.09,-31.778" style="fill:none;stroke:#231f20;stroke-width:21.38px;"/></g><clipPath id="_clip7"><rect id="example_simulated_data.pdf" x="1314.05" y="1481.52" width="2571.9" height="1028.76"/></clipPath><g clip-path="url(#_clip7)"><path d="M1314.05,1481.52l2571.9,0l0,1028.76l-2571.9,-0l-0,-1028.76Zm-0,0l2571.9,0l0,1028.76l-2571.9,-0l-0,-1028.76Z" style="fill:none;fill-rule:nonzero;"/><rect x="1481.22" y="1586.97" width="2363.58" height="766.427" style="fill:none;"/><clipPath id="_clip8"><rect x="1481.22" y="1620.41" width="2363.58" height="699.558" clip-rule="nonzero"/></clipPath><g clip-path="url(#_clip8)"><path d="M1482.91,2068.78l1.687,-18.566l1.69,12.507l1.687,12.247l1.687,-25.397l1.69,-28.813l1.687,27.457l1.687,3.115l1.687,-30.161l1.688,64.81l1.7,51.921l1.687,-9.986l1.687,-35.845l1.687,-6.291l1.69,-101.701l1.687,-4.228l1.687,-9.645l1.687,68.187l1.69,29.595l1.687,5.696l1.687,-23.479l1.688,22.404l1.689,14.82l1.687,20.274l1.688,-6.924l1.687,30.493l1.69,-22.003l1.687,53.267l1.687,-13.25l1.687,19.831l1.69,-45.671l1.687,-22.715l1.697,99.851l1.688,-49.036l1.689,30.158l1.687,-26.873l1.688,-0.09l1.687,10.467l1.69,-35.523l1.687,-30.292l1.687,-80.552l1.687,55.828l1.69,37.123l1.687,-7.505l1.687,-17.723l1.687,-10.861l1.69,32.19l1.687,-26.814l1.687,-8.76l1.688,-3.063l1.689,71.802l1.687,7.955l1.688,-23.497l1.687,37.784l1.697,-27.257l1.69,-42.236l1.687,-90.346l1.687,73.701l1.688,22.403l1.689,67.834l1.687,-52.724l1.688,-68.86l1.687,27.558l1.69,75.671l1.687,-16.797l1.687,14.284l1.687,-37.884l1.69,-65.895l1.687,55.749l1.687,-14.277l1.687,-2.983l1.69,4.138l1.687,8.178l1.687,-6.823l1.688,24.775l1.689,25.992l1.698,-51.61l1.687,22.424l1.687,-9.071l1.69,-7.245l1.687,-21.872l1.687,16.095l1.687,-11.321l1.69,31.506l1.687,21.57l1.687,-96.006l1.688,73.692l1.689,-38.488l1.687,-3.457l1.688,-3.426l1.687,-28.671l1.69,20.053l1.687,29.688l1.687,-50.646l1.687,-20.596l1.69,12.87l1.687,65.202l1.687,4.813l1.698,6.941l1.689,-65.694l1.687,-41.251l1.688,7.253l1.687,13.664l1.69,74.817l1.687,-12.489l1.687,-7.837l1.687,-2.499l1.69,-38.047l1.687,-16.475l1.687,8.929l1.687,-4.449l1.69,-18.477l1.687,20.264l1.687,-17.038l1.688,0.743l1.689,51.286l1.687,64.892l1.688,28.129l1.687,-32.419l1.69,-42.447l1.697,59.998l1.687,-39.502l1.687,13.16l1.688,-44.013l1.689,17.752l1.687,-11.664l1.688,47.49l1.687,-9.012l1.69,-32.218l1.687,-54.895l1.687,76.885l1.687,-32.229l1.69,1.356l1.687,16.025l1.687,-42.709l1.687,74.917l1.69,6.792l1.687,-48.935l1.687,60.347l1.688,-29.705l1.689,22.594l1.687,-18.245l1.698,-7.114l1.687,17.231l1.69,-73.067l1.687,-6.533l1.687,-3.565l1.687,46.886l1.69,-47.59l1.687,38.077l1.687,-58.984l1.688,22.113l1.689,-35.644l1.687,1.978l1.688,43.01l1.687,-30.151l1.69,17.561l1.687,24.906l1.687,105.549l1.687,-73.822l1.69,-18.455l1.687,58.14l1.687,-5.486l1.687,13.582l1.698,12.438l1.69,25.92l1.687,-82.612l1.687,-41.683l1.69,6.319l1.687,-24.544l1.687,24.06l1.687,30.462l1.687,-19.037l1.69,56.52l1.687,-51.94l1.687,-8.981l1.69,68.045l1.687,-1.898l1.687,109.597l1.688,-11.433l1.687,-26.091l1.69,-52.082l1.687,34.711l1.687,-8.138l1.69,28.07l1.697,-24.765l1.687,-61.957l1.687,9.555l1.688,-45.883l1.689,39.736l1.687,17.288l1.688,-23.991l1.687,-30.862l1.69,34.54l1.687,27.036l1.687,26.079l1.687,-56.188l1.69,14.927l1.687,-62.849l1.687,4.58l1.687,36.038l1.69,-17.24l1.687,18.153l1.687,-2.703l1.688,-39.654l1.689,49.36l1.687,-1.697l1.698,-20.797l1.687,29.958l1.69,-21.54l1.687,75.511l1.687,50.09l1.687,22.556l1.69,-7.857l1.687,-3.578l1.687,-22.342l1.688,-37.413l1.689,-31.928l1.687,-103.671l1.688,-70.606l1.687,-24.955l1.69,-51.048l1.687,-43.19l1.687,-48.655l1.687,-17.046l1.69,-12.047l1.687,-17.782l1.687,37.261l1.687,-17.208l1.698,57.415l1.69,-69.179l1.687,64.135l1.687,-3.083l1.687,38.599l1.69,24.091l1.687,42.526l1.687,61.243l1.687,-16.155l1.69,-32.57l1.687,32.39l1.687,48.705l1.688,2.381l1.689,-40.739l1.687,86.792l1.688,-48.584l1.687,31.696l1.69,63.424l1.687,-35.817l1.687,-130.825l1.687,48.344l1.69,24.433l1.697,9.766l1.687,9.382l1.688,26.967l1.689,-15.784l1.687,-63.233l1.688,-31.305l1.687,-7.806l1.69,36.128l1.687,-6.672l1.687,36.56l1.687,24.976l1.69,12.81l1.687,-4.642l1.687,40.968l1.687,-59.946l1.69,0.149l1.687,-0.792l1.687,4.069l1.688,-19.3l1.689,-15.431l1.687,44.887l1.688,24.744l1.697,-9.765l1.69,-7.374l1.687,4.774l1.687,-32.19l1.687,38.63l1.69,51.718l1.687,-56.672l1.687,33.888l1.688,-19.241l1.689,-32.519l1.687,-45.592l1.688,9.976l1.687,31.233l1.69,-51.134l1.687,41.379l1.687,-9.863l1.687,21.519l1.69,-31.807l1.687,73.189l1.687,-59.727l1.687,-7.647l1.69,25.871l1.698,-1.458l1.687,22.887l1.687,-8.227l1.687,-14.166l1.69,-33.165l1.687,-63.222l1.687,27.527l1.687,15.009l1.69,-44.255l1.687,80.414l1.687,78.916l1.688,-52.163l1.689,9.644l1.687,-55.887l1.688,56.24l1.687,7.574l1.69,55.296l1.687,-58.228l1.687,48.151l1.687,-38.859l1.69,-44.075l1.687,7.325l1.697,44.114l1.688,-30.49l1.689,33.262l1.687,-1.134l1.688,-45.862l1.687,-55.829l1.69,-34.268l1.687,31.545l1.687,40.317l1.687,-24.122l1.69,29.919l1.687,36.439l1.687,58.359l1.687,5.396l1.69,-5.877l1.687,-1.165l1.687,6.761l1.688,-13.152l1.689,-9.684l1.687,-26.13l1.688,-40.729l1.687,36.519l1.7,-3.377l1.687,-34.41l1.687,106.343l1.687,-21.83l1.688,-14.387l1.689,-41.231l1.687,23.106l1.688,-35.412l1.689,3.104l1.687,-61.376l1.688,25.75l1.687,41.966l1.687,-32.121l1.69,22.998l1.687,4.733l1.687,75.346l1.69,-47.67l1.687,34.43l1.687,-32.55l1.687,-8.22l1.688,-7.926l1.7,2.15l1.687,2.765l1.687,-2.161l1.687,-16.537l1.69,36.619l1.687,-26.051l1.687,-2.672l1.687,-33.906l1.69,1.466l1.687,-29.798l1.687,44.707l1.688,-29.155l1.689,6.952l1.687,40.086l1.688,52.914l1.687,-41.531l1.69,3.043l1.687,-45.7l1.687,25.317l1.687,-9.896l1.69,-3.979l1.687,7.656l1.697,-17.833l1.688,3.184l1.689,69.092l1.687,-8.621l1.688,-48.977l1.687,-3.948l1.69,-25.017l1.687,-14.264l1.687,-10.429l1.687,-28.481l1.69,49.949l1.687,44.458l1.687,-6.571l1.687,5.696l1.69,-8.099l1.687,-39.26l1.687,8.449l1.688,14.336l1.689,-44.746l1.687,-30.452l1.688,22.093l1.687,43.972l1.697,46.225l1.69,-35.516l1.687,3.699l1.687,-46.968l1.688,54.905l1.689,73.79l1.687,25.639l1.688,39.492l1.687,16.157l1.69,16.074l1.687,8.117l1.687,38.8l1.687,-23.116l1.69,-34.531l1.687,-77.288l1.687,-138.009l1.687,10.43l1.69,-39.273l1.687,-97.231l1.687,-68.446l1.688,-10.831l1.689,-25.76l1.698,-45.348l1.687,-44.959l1.687,-24.212l1.69,-4.539l1.687,49.457l1.687,-14.978l1.687,56.26l1.69,76.203l1.687,-6.281l1.687,36.501l1.688,27.064l1.689,73.821l1.687,33.386l1.688,39.744l1.687,57.736l1.69,26.463l1.687,-85.727l1.687,89.003l1.687,-15.884l1.69,56.703l1.687,-45.623l1.687,49.952l1.698,-18.696l1.689,5.978l1.687,-17.693l1.688,-67.232l1.687,-46.353l1.69,126.818l1.687,8.348l1.687,1.366l1.687,-4.632l1.69,49.982l1.687,-19.168l1.687,-74.174l1.687,78.574l1.69,-69.13l1.687,-4.804l1.687,4.331l1.688,48.897l1.689,-119.293l1.687,-13.312l1.688,45.189l1.687,7.366l1.69,40.085l1.697,2.161l1.687,-14.166l1.687,-13.343l1.688,-27.427l1.689,44.224l1.687,46.014l1.688,-0.101l1.687,23.438l1.69,-67.43l1.687,41.462l1.687,9.392l1.687,-18.677l1.69,-44.193l1.687,-60.26l1.687,44.818l1.687,-42.336l1.69,8.639l1.687,63.444l1.687,7.878l1.688,-55.95l1.689,15.038l1.687,10.308l1.698,-15.421l1.687,7.906l1.69,-57.235l1.687,53.529l1.687,19.349l1.687,-23.78l1.69,-7.273l1.687,43.763l1.687,28.402l1.688,-40.67l1.689,-26.833l1.687,-19.531l1.688,-51.296l1.687,58.76l1.69,-29.657l1.687,45.803l1.687,5.936l1.687,-1.535l1.69,18.104l1.687,-60.551l1.687,-3.747l1.698,-0.604l1.687,16.215l1.689,21.239l1.688,-4.611l1.687,-31.375l1.69,35.824l1.687,43l1.687,4.67l1.687,7.336l1.687,-13.452l1.69,-11.213l1.687,-22.352l1.687,-12.77l1.69,21.578l1.687,83.469l1.687,-30.413l1.688,26.455l1.687,-23.009l1.689,-33.03l1.688,-33.124l1.687,-17.803l1.69,9.966l1.687,-10.629l1.697,-23.068l1.687,36.722l1.688,-31.647l1.689,86.038l1.687,-51.369l1.688,9.686l1.687,35.453l1.69,-5.053l1.687,16.154l1.687,-16.666l1.687,-22.203l1.69,31.475l1.687,-24.212l1.687,75.56l1.687,-60.811l1.69,-5.205l1.687,21.722l1.687,-28.854l1.688,-9.202l1.689,28.872l1.687,-8.58l1.698,-14.436l1.687,-20.164l1.69,18.287l1.687,3.685l1.687,43.452l1.687,-9.454l1.69,-45.952l1.687,75.791l1.687,-13.734l1.688,25.087l1.689,-47.01l1.687,-6.308l1.688,-10.388l1.687,9.814l1.69,-6.97l1.687,-0.625l1.687,-38.216l1.687,34.068l1.69,1.386l1.687,4.169l1.687,-49.108l1.687,-5.334l1.698,35.796l1.69,-3.326l1.687,-19.047l1.687,-49.468l1.687,-28.422l1.69,13.451l1.687,41.945l1.687,-22.093l1.687,21.308l1.69,23.52l1.687,-33.193l1.687,46.807l1.688,-29.698l1.689,41.693l1.687,-38.741l1.688,14.899l1.687,53.267l1.689,-30.068l1.688,35.623l1.687,-49.146l1.687,33.445l1.69,-77.548l1.697,-22.404l1.687,25.266l1.688,18.305l1.689,20.042l1.687,-22.241l1.688,91.935l1.687,-73.953l1.69,1.124l1.687,-11.02l1.687,62.268l1.687,62.328l1.69,-19.148l1.687,21.038l1.687,-46.505l1.687,30.58l1.69,-48.946l1.687,-50.322l1.687,-55.679l1.688,-66.175l1.689,-55.939l1.687,1.245l1.688,-56.41l1.697,-29.549l1.69,-51.697l1.687,-25.429l1.687,3.778l1.687,-58.421l1.69,10.278l1.687,-62.971l1.687,-1.738l1.688,33.676l1.689,-4.099l1.687,60.37l1.688,43.138l1.687,22.968l1.69,7.052l1.687,99.7l1.687,35.867l1.687,54.574l1.69,-4.362l1.687,5.848l1.687,-43.21l1.687,43.238l1.69,5.237l1.698,27.686l1.687,47.017l1.687,-53.115l1.687,4.19l1.69,33.916l1.687,-64.488l1.687,-56.824l1.687,23.893l1.69,-17.592l1.687,77.286l1.687,9.655l1.688,0.532l1.689,-24.371l1.687,-48.254l1.688,38.236l1.687,-41.531l1.69,57.827l1.687,66.52l1.687,-12.078l1.687,-38.116l1.69,-33.846l1.687,-58.732l1.697,60.983l1.688,66.869l1.689,-27.326l1.687,12.337l1.688,-10.208l1.687,32.761l1.69,-54.784l1.687,18.729l1.687,-67.845l1.687,18.194l1.69,19.168l1.687,3.598l1.687,18.585l1.687,29.003l1.69,48.797l1.687,-0.813l1.687,16.466l1.688,-52.202l1.689,26.583l1.687,-42.537l1.688,38.147l1.697,-26.632l1.69,-49.862l1.687,26.331l1.687,-32.761l1.687,-4.853l1.687,20.727l1.69,10.63l1.687,-9.364l1.688,-0.422l1.689,22.957l1.687,23.175l1.688,7.536l1.687,-29.526l1.687,108.259l1.69,-66.607l1.687,-2.119l1.687,-10.066l1.69,33.725l1.687,-17.924l1.687,15.784l1.687,-12.507l1.687,17.288l1.69,73.562l1.698,-81.046l1.687,45.873l1.687,-14.858l1.69,47.238l1.687,-29.428l1.687,-9.925l1.687,-3.747l1.69,-30.632l1.687,22.232l1.687,50.767l1.688,-17.101l1.689,-28.733l1.687,16.949l1.688,-21.067l1.687,27.327l1.69,-20.323l1.687,9.009l1.687,29.459l1.687,-34.503l1.69,43.183l1.687,-15.342l1.697,14.879l1.688,-10.067l1.689,14.285l1.687,-49.167l1.688,-14.938l1.687,6.551l1.69,7.062l1.687,-6.281l1.687,25.892l1.687,59.354l1.69,-29.224l1.687,-1.116l1.687,19.752l1.687,-70.157l1.69,21.692l1.687,6.9l1.687,-40.618l1.688,26.946l1.689,-24.503l1.687,2.984l1.688,-52.593l1.687,76.151l1.697,-6.409l1.69,-39.785l1.687,26.573l1.687,-12.859l1.688,25.055l1.689,-31.786l1.687,-32.29l1.688,22.424l1.687,-19.248l1.689,-50.988l1.688,104.052l1.687,10.812l1.687,-70.83l1.69,24.865l1.687,-48.334l1.687,35.505l1.687,-15.331l1.69,-62.61l1.687,71.141l1.687,8.47l1.687,-71.613l1.69,14.938l1.698,51.219l1.687,-8.42l1.687,35.726l1.69,-13.824l1.687,19.459l1.687,-6.519l1.687,9.755l1.69,31.485l1.687,-62.106l1.687,26.421l1.688,15.02l1.689,-31.136l1.687,-9.04l1.688,-36.85l1.687,-42.436l1.69,98.876l1.687,-1.455l1.687,6.568l1.687,20.707l1.69,-9.424l1.687,4.954l1.687,-22.777l1.698,19.51l1.689,16.828l1.687,2.13l1.688,1.479l1.687,-35.927l1.69,-55.438l1.687,1.819l1.687,66.177l1.687,18.464l1.69,-15.46l1.687,-8.309l1.687,52.675l1.687,11.663l1.69,58.28l1.687,50.363l1.687,19.641l1.688,-19.078l1.689,12.497l1.687,-29.497l1.688,-26.954l1.687,-145.945l1.69,-41.282l1.697,-1.476l1.687,-25.007l1.687,7.737l1.688,-54.121l1.689,-32.318l1.687,-44.348l1.688,-4.318l1.687,33.746l1.689,-98.126l1.688,61.515l1.687,82.221l1.687,27.327l1.69,-14.858l1.687,-9.092l1.687,-6.844l1.687,30.994l1.69,-58.58l1.687,47.158l1.687,-28.612l1.688,36.629l1.689,31.616l1.687,-10.529l1.698,7.667l1.687,55.265l1.69,-31.215l1.687,-28.762l1.687,-32.342l1.687,84.313l1.69,10.025l1.687,-59.776l1.687,-0.152l1.688,-14.858l1.689,-5.224l1.687,-1.247l1.688,-34.991l1.687,112.12l1.69,-59.023l1.687,6.006l1.687,-31.786l1.687,33.936l1.69,-98.967l1.687,99.751l1.687,7.024l1.698,35.855l1.687,49.087l1.689,-35.163l1.688,38.237l1.687,-60.198l1.69,-27.99l1.687,-11.533l1.687,67.652l1.687,27.547l1.687,-34.358l1.69,-25.618l1.687,34.862l1.687,-23.258l1.69,10.547l1.687,91.745l1.687,-45.489l1.688,14.256l1.687,-20.416l1.689,-6.118l1.688,43.342l1.687,-10.157l1.69,84.13l1.687,-64.961l1.697,-27.98l1.687,27.015l1.688,-63.385l1.689,18.868l1.687,27.278l1.688,-65.905l1.687,49.678l1.69,2.552l1.687,17.993l1.687,-18.947l1.687,20.927l1.69,7.716l1.687,8.618l1.687,-9.112l1.687,-40.466l1.69,20.205l1.687,-12.178l1.687,-62.217l1.688,-19.542l1.689,-25.749l1.687,-1.556l1.698,29.857l1.687,20.637l1.69,-48.756l1.687,12.127l1.687,57.122l1.687,44.648l1.69,26.071l1.687,-71.632l1.687,-26.946l1.688,-6.78l1.689,46.204l1.687,-34.63l1.688,-49.983l1.687,45.603l1.69,-64.408l1.687,47.197l1.687,25.287l1.687,8.631l1.69,-55.347l1.687,43.29l1.687,71.391l1.687,-30.752l1.698,-9.344l1.689,-47.74l1.688,52.13l1.687,-56.641l1.687,18.536l1.69,-73.662l1.687,42.315l1.687,14.308l1.687,7.533l1.69,6.381l1.687,-87.746l1.687,41.704l1.687,14.737l1.69,8.538l1.687,57.529l1.688,-42.799l1.687,22.604l1.689,12.348l1.688,8.258l1.687,-30.945l1.687,-29.114l1.69,8.732l1.697,4.411l1.687,-30.081l1.688,33.223l1.689,-12.607l1.687,7.726l1.688,6.077l1.687,6.168l1.69,-15.622l1.687,40.327l1.687,1.217l1.687,-17.453l1.69,-24.603l1.687,6.811l1.687,-9.774l1.687,39.502l1.69,-13.865l1.687,-45.016l1.687,64.83l1.688,-62.461l1.689,25.981l1.687,18.346l1.688,-47.591l1.697,-22.473l1.69,-61.567l1.687,50.093l1.687,-29.507l1.687,27.005l1.69,13.281l1.687,-24.381l1.687,-32.221l1.688,-18.456l1.689,23.893l1.687,44.262l1.688,11.445l1.687,-26.915l1.69,19.511l1.687,10.257l1.687,-18.215l1.687,1.045l1.69,-45.5l1.687,58.32l1.687,27.97l1.687,-0.522l1.69,-15.362l1.697,-40.117l1.688,34.582l1.687,37.642l1.687,-52.623l1.69,48.948l1.687,3.848l1.687,27.987l1.687,-47.027l1.69,-29.405l1.687,22.986l1.687,-17.873l1.687,9.676l1.69,3.979l1.687,32.73l1.688,3.546l1.687,-34.831l1.689,-10.126l1.688,-31.516l1.687,128.675l1.687,-47.349l1.69,47.581l1.687,13.191l1.697,-67.554l1.688,-0.581l1.689,-3.467l1.687,-61.255l1.688,-29.646l1.687,-36.861l1.69,-50.484l1.687,55.037l1.687,-51.189l1.687,18.214l1.69,-52.783l1.687,51.86l1.687,2.109l1.687,-48.313l1.69,-0.844l1.687,50.895l1.687,4.913l1.688,34.983l1.689,4.207l1.687,34.994l1.688,60.671l1.697,35.112l1.69,-32.813l1.687,-43.539l1.687,24.201l1.687,18.968l1.687,77.679l1.69,3.807l1.687,-53.195l1.688,55.386l1.689,-42.025l1.687,16.085l1.688,-23.528l1.687,29.446l1.687,-7.536l1.69,-14.899l1.687,41.914l1.687,-19.238l1.69,0.239l1.687,14.066l1.687,4.733l1.687,22.072l1.687,-36.871l1.69,-8.922l1.698,23.378l1.687,-10.889l1.687,-6.119l1.69,42.969l1.687,-46.135l1.687,-36.559l1.687,41.112l1.69,-15.463l1.687,14.367l1.687,-21.108l1.688,-35.705l1.689,16.717l1.687,-77.479l1.688,24.554l1.687,-52.814l1.689,-3.045l1.688,14.809l1.687,91.835l1.687,-37.773l1.69,38.378l1.687,-23.621l1.697,43l1.688,-31.406l1.689,-24.705l1.687,14.346l1.688,19.631l1.687,-59.817l1.69,59.226l1.687,-53.779l1.687,-11.172l1.687,-22.867l1.69,7.304l1.687,29.225l1.687,-79.297l1.687,83.044l1.69,49.329l1.687,-2.029l1.687,-32.53l1.688,-56.131l1.689,-16.918l1.687,60.519l1.688,-15.622l1.687,43.121l1.697,-6.108l1.69,-27.648l1.687,-17.101l1.687,10.892l1.687,45.34l1.69,-35.124l1.687,30.34l1.688,19.22l1.687,-38.699l1.689,-70.344l1.688,36.125l1.687,11.614l1.687,3.046l1.69,-5.085l1.687,-5.424l1.687,16.617l1.687,9.472l1.69,1.88l1.687,41.863l1.687,-14.346l1.687,-16.918l1.69,45.682l1.698,27.113l1.687,-22.442l1.687,-10.89l1.69,35.734l1.687,-62.206l1.687,8.297l1.687,22.393l1.69,23.147l1.687,-93.491l1.687,-1.507l1.688,69.722l1.689,-1.778l1.687,16.888l1.688,-20.244l1.687,-3.899l1.69,38.208l1.687,27.797l1.687,3.046l1.687,-13.112l1.69,-29.155l1.687,-23.307l1.687,35.827l1.698,-12.548l1.689,35.011l1.687,-52.361l1.688,85.052l1.687,-23.167l1.69,15.794l1.687,8.487l1.687,-65.784l1.687,11.674l1.69,25.619l1.687,-104.163l1.687,43.612l1.687,-1.546l1.69,-22.666l1.687,-28.229l1.687,56.813l1.688,49.468l1.689,-49.64l1.687,1.86l1.688,-15.794l1.687,21.097l1.69,0.231l1.697,-44.596l1.687,73.492l1.687,22.794l1.687,3.578l1.69,-4.894l1.687,-0.27l1.688,-40.919l1.687,-36.511l1.689,-10.99l1.688,11.484l1.687,20.292l1.687,9.897l1.69,16.586l1.687,13.091l1.687,-10.218l1.687,-2.22l1.69,12.227l1.687,-71.139l1.687,-14.577l1.687,57.536l1.69,-45.23l1.687,-17.401l1.698,58.5l1.687,-67.309l1.69,65.151l1.687,-31.547l1.687,58.3l1.687,-23.538l1.69,-21.66l1.687,31.063l1.687,-40.79l1.688,-33.414l1.689,33.987l1.687,-9.554l1.688,57.577l1.687,-80.483l1.69,47.49l1.687,-9.675l1.687,-36.207l1.687,58.832l1.69,12.548l1.687,66.407l1.687,85.135l1.698,0.301l1.687,70.285l1.689,-59.002l1.688,-60.008l1.687,-5.576l1.69,-92.429l1.687,-87.756l1.687,14.346l1.687,-69.932l1.687,-17.523l1.69,-24.734l1.687,-59.364l1.687,-26.915l1.69,36.107l1.687,-3.917l1.687,0.11l1.688,-43.28l1.687,48.825l1.689,-29.325l1.688,50.132l1.687,17.209l1.69,26.855l1.687,-7.504l1.697,61.995l1.687,-51.386l1.688,88.651l1.689,-11.566l1.687,34.029l1.688,82.944l1.687,26.915l1.689,-55.608l1.688,-6.149l1.687,22.846l1.687,-66.82l1.69,84.211l1.687,-15.704l1.687,-13.903l1.687,54.352l1.69,-51.078l1.687,-39.744l1.687,-25.968l1.687,-11.615l1.69,93.422l1.687,-13.503l1.698,-58.421l1.687,-39.26l1.69,80.984l1.687,47.349l1.687,-29.304l1.687,-24.575l1.69,-27.848l1.687,-9.606l1.687,-34.911l1.688,7.062l1.689,40.808l1.687,-26.48l1.688,15.522l1.687,42.778l1.69,-11.815l1.687,1.777l1.687,40.85l1.687,-49.479l1.69,88.62l1.687,-22.897l1.687,20.516l1.687,-18.104l1.698,-16.548l1.689,12.649l1.688,19.783l1.687,-49.64l1.687,-9.172l1.69,-52.785l1.687,71.401l1.687,1.234l1.687,-39.581l1.69,65.473l1.687,-80.503l1.687,-1.045l1.687,24.662l1.69,14.359l1.687,14.637l1.688,6.831l1.687,0.453l1.689,-63.596l1.688,11.705l1.687,86.3l1.687,-36.297l1.69,-41.243l1.697,-49.036l1.687,51.608l1.688,1.036l1.689,-28.08l1.687,21.671l1.688,13.572l1.687,0.432l1.689,-9.174l1.688,21.944l1.687,-45.693l1.687,-4.269l1.69,18.273l1.687,-4.65l1.687,-7.795l1.687,-36.028l1.69,19.961l1.687,15.12l1.687,15.483l1.688,16.316l1.689,33.504l1.687,21.509l1.688,32.561l1.697,-21.347l1.69,-24.012l1.687,18.747l1.687,5.445l1.687,-1.255l1.69,6.378l1.687,35.858l1.687,-20.779l1.688,-49.005l1.689,35.202l1.687,36.096l1.688,-8.718l1.687,34.499l1.69,15.19l1.687,-40.809l1.687,-63.796l1.687,12.832l1.69,-17.212l1.687,-15.261l1.687,-64.226l1.687,37.663l1.69,47.279l1.697,37.694l1.688,-40.919l1.687,84.624l1.687,-39.927l1.69,-86.318l1.687,25.066l1.687,82.422l1.687,-6.35l1.69,-75.47l1.687,-19.007l1.687,14.146l1.687,9.23l1.69,16.005l1.687,43.342l1.688,36.107l1.687,-80.071l1.689,-27.195l1.688,-44.78l1.687,-10.084l1.687,14.906l1.69,18.889l1.687,30.129l1.697,23.58l1.688,14.95l1.689,-54.805l1.687,9.545l1.688,-29.989l1.687,57.575l1.69,-21.9l1.687,-0.321l1.687,20.614l1.687,21.349l1.69,-11.805l1.687,16.457l1.687,-57.003l1.687,-41.513l1.69,0.612l1.687,-5.293l1.687,2.078l1.688,-4.228l1.689,68.477l1.687,65.331l1.688,-56.934l1.697,-29.083l1.69,-9.624l1.687,-1.497l1.687,-9.786l1.687,29.878l1.687,-44.083l1.69,43.471l1.687,3.767l1.688,43.944l1.689,40.567l1.687,-33.726l1.688,39.08" style="fill:none;fill-rule:nonzero;stroke:#000;stroke-width:9px;stroke-linecap:butt;stroke-linejoin:miter;stroke-miterlimit:2;"/></g><path d="M1818.87,2353.4l0,-766.428" style="fill:none;fill-rule:nonzero;stroke:#8ac63f;stroke-width:7.72px;stroke-linecap:butt;stroke-linejoin:miter;stroke-miterlimit:2;"/><path d="M2156.53,2353.4l-0,-766.428" style="fill:none;fill-rule:nonzero;stroke:#e5077e;stroke-width:7.72px;stroke-linecap:butt;stroke-linejoin:miter;stroke-miterlimit:2;"/><path d="M2494.18,2353.4l0,-766.428" style="fill:none;fill-rule:nonzero;stroke:#e5077e;stroke-width:7.72px;stroke-linecap:butt;stroke-linejoin:miter;stroke-miterlimit:2;"/><path d="M2831.84,2353.4l0,-766.428" style="fill:none;fill-rule:nonzero;stroke:#e5077e;stroke-width:7.72px;stroke-linecap:butt;stroke-linejoin:miter;stroke-miterlimit:2;"/><path d="M3169.5,2353.4l-0,-766.428" style="fill:none;fill-rule:nonzero;stroke:#e5077e;stroke-width:7.72px;stroke-linecap:butt;stroke-linejoin:miter;stroke-miterlimit:2;"/><path d="M3507.15,2353.4l0,-766.428" style="fill:none;fill-rule:nonzero;stroke:#8ac63f;stroke-width:7.72px;stroke-linecap:butt;stroke-linejoin:miter;stroke-miterlimit:2;"/><path d="M3844.8,2354.68l-0,12.86" style="fill:none;fill-rule:nonzero;stroke:#000;stroke-width:2.57px;stroke-linecap:butt;stroke-linejoin:miter;stroke-miterlimit:2;"/></g><defs><linearGradient id="_Linear2" x1="0" y1="0" x2="1" y2="0" gradientUnits="userSpaceOnUse" gradientTransform="matrix(-108.184,0,0,108.184,778.839,671.976)"><stop offset="0" style="stop-color:#fff;stop-opacity:1"/><stop offset="1" style="stop-color:#000;stop-opacity:1"/></linearGradient><linearGradient id="_Linear3" x1="0" y1="0" x2="1" y2="0" gradientUnits="userSpaceOnUse" gradientTransform="matrix(108.184,0,0,108.184,670.655,254.247)"><stop offset="0" style="stop-color:#000;stop-opacity:1"/><stop offset="1" style="stop-color:#fff;stop-opacity:1"/></linearGradient><linearGradient id="_Linear4" x1="0" y1="0" x2="1" y2="0" gradientUnits="userSpaceOnUse" gradientTransform="matrix(-108.184,0,0,108.184,778.839,533.299)"><stop offset="0" style="stop-color:#fff;stop-opacity:1"/><stop offset="1" style="stop-color:#000;stop-opacity:1"/></linearGradient><linearGradient id="_Linear5" x1="0" y1="0" x2="1" y2="0" gradientUnits="userSpaceOnUse" gradientTransform="matrix(-108.184,0,0,108.184,778.839,393.914)"><stop offset="0" style="stop-color:#fff;stop-opacity:1"/><stop offset="0.02" style="stop-color:#fff;stop-opacity:1"/><stop offset="1" style="stop-color:#000;stop-opacity:1"/></linearGradient></defs></svg>